<?xml version="1.0" encoding="UTF-8" standalone="no"?><!DOCTYPE svg PUBLIC "-//W3C//DTD SVG 1.1//EN" "http://www.w3.org/Graphics/SVG/1.1/DTD/svg11.dtd"><svg width="100%" height="100%" viewBox="0 0 1834 1578" version="1.1" xmlns="http://www.w3.org/2000/svg" xmlns:xlink="http://www.w3.org/1999/xlink" xml:space="preserve" xmlns:serif="http://www.serif.com/" style="fill-rule:evenodd;clip-rule:evenodd;stroke-linejoin:round;stroke-miterlimit:2;"><path d="M249.19,811.73l-236.444,-404.188c-16.982,-29.031 -16.996,-64.962 -0.034,-94.005c40.526,-69.396 115.895,-198.454 156.138,-267.364c16.699,-28.594 47.322,-46.173 80.434,-46.173l1335.62,0c33.112,-0 63.735,17.579 80.434,46.172c40.057,68.59 114.888,196.723 155.28,265.886c17.011,29.127 16.945,65.174 -0.17,94.239c-114.463,194.374 -549.62,933.331 -662.765,1125.47c-16.741,28.429 -47.271,45.88 -80.262,45.88l-326.762,0c-33.087,0 -63.692,-17.553 -80.399,-46.113l-232.94,-398.198l325.936,-188.179l111.408,192.964c8.319,14.41 23.694,23.287 40.333,23.287c16.639,-0 32.014,-8.877 40.333,-23.287c91.153,-157.88 312.18,-540.711 403.333,-698.592c8.319,-14.41 8.319,-32.163 -0,-46.573c-8.32,-14.409 -23.695,-23.286 -40.334,-23.286l-806.664,-0c-16.639,-0 -32.014,8.877 -40.334,23.286c-8.319,14.41 -8.319,32.163 0,46.573l105.633,182.962l-327.777,189.242Z" style="fill:url(#_Linear1);"/><defs><linearGradient id="_Linear1" x1="0" y1="0" x2="1" y2="0" gradientUnits="userSpaceOnUse" gradientTransform="matrix(916.667,0,0,788.822,916.667,788.822)"><stop offset="0" style="stop-color:#2bd563;stop-opacity:1"/><stop offset="1" style="stop-color:#0082d5;stop-opacity:1"/></linearGradient></defs></svg>